<svg aria-hidden="true" style="position: absolute; width: 0; height: 0; overflow: hidden;" version="1.1" xmlns="http://www.w3.org/2000/svg" xmlns:xlink="http://www.w3.org/1999/xlink">
<defs>
<symbol id="icon-moneybag" viewBox="0 0 32 32">
<path d="M14.017 9.302h3.934v-1.476h-3.934v1.476zM17.922 9.793h-3.905c0 0-6.425 6.333-6.425 12.542 0 6.579 6.732 7.102 6.732 7.102s2.008 0.333 3.257 0c0 0 6.826-0.8 6.826-7.070 0.001-6.272-6.485-12.574-6.485-12.574zM18.211 23.123c-0.158 0.32-0.371 0.588-0.643 0.802-0.271 0.215-0.588 0.376-0.949 0.484-0.046 0.014-0.096 0.019-0.143 0.031v1.092h-0.983v-0.964c-0.012 0.001-0.024 0.003-0.036 0.003-0.279 0-0.538-0.022-0.778-0.067s-0.45-0.101-0.634-0.164c-0.184-0.064-0.337-0.131-0.459-0.201s-0.212-0.132-0.266-0.186c-0.055-0.054-0.093-0.132-0.116-0.234-0.022-0.103-0.034-0.249-0.034-0.441 0-0.129 0.004-0.237 0.013-0.325s0.021-0.158 0.041-0.213c0.019-0.055 0.043-0.093 0.074-0.116 0.031-0.022 0.068-0.034 0.109-0.034 0.059 0 0.141 0.034 0.247 0.103s0.242 0.145 0.409 0.228c0.167 0.084 0.365 0.159 0.597 0.229 0.231 0.068 0.499 0.103 0.803 0.103 0.2 0 0.379-0.024 0.537-0.072s0.293-0.115 0.403-0.203c0.111-0.088 0.195-0.196 0.253-0.325 0.059-0.13 0.088-0.273 0.088-0.433 0-0.183-0.051-0.34-0.15-0.472-0.1-0.131-0.231-0.247-0.391-0.35-0.16-0.102-0.342-0.197-0.546-0.287s-0.415-0.185-0.631-0.284c-0.217-0.1-0.427-0.213-0.631-0.341-0.204-0.127-0.387-0.278-0.547-0.455s-0.29-0.387-0.391-0.628c-0.1-0.241-0.149-0.531-0.149-0.868 0-0.388 0.072-0.728 0.215-1.021s0.338-0.537 0.581-0.73c0.244-0.193 0.531-0.338 0.862-0.434 0.17-0.049 0.346-0.085 0.526-0.108v-1.035h0.983v1.034c0.040 0.005 0.079 0.003 0.118 0.009 0.191 0.029 0.371 0.068 0.537 0.118s0.314 0.105 0.443 0.167 0.215 0.113 0.256 0.155c0.043 0.041 0.070 0.076 0.086 0.105 0.014 0.029 0.025 0.068 0.037 0.116 0.010 0.048 0.018 0.108 0.021 0.182 0.004 0.072 0.006 0.163 0.006 0.271 0 0.121-0.004 0.224-0.010 0.308-0.006 0.083-0.016 0.152-0.031 0.206-0.014 0.055-0.035 0.094-0.062 0.119s-0.062 0.037-0.109 0.037c-0.045 0-0.119-0.028-0.219-0.086-0.1-0.059-0.223-0.121-0.367-0.189-0.146-0.068-0.314-0.13-0.506-0.187-0.193-0.056-0.403-0.083-0.631-0.083-0.18 0-0.336 0.021-0.469 0.065-0.134 0.043-0.245 0.104-0.335 0.18-0.089 0.077-0.156 0.17-0.199 0.277-0.044 0.107-0.065 0.222-0.065 0.342 0 0.18 0.049 0.335 0.146 0.466s0.229 0.248 0.394 0.35c0.164 0.103 0.351 0.198 0.56 0.287 0.208 0.090 0.42 0.185 0.637 0.284 0.217 0.101 0.428 0.214 0.637 0.341s0.395 0.279 0.557 0.456 0.293 0.385 0.393 0.624c0.1 0.24 0.15 0.521 0.15 0.847-0.001 0.422-0.081 0.794-0.239 1.115zM17.891 7.334l1.998-4.919c0 0-1.26 1.046-1.998 1.046s-1.907-1.015-1.907-1.015-1.26 1.015-1.998 1.015c-0.737 0-1.937-0.984-1.937-0.984l2.029 4.857h3.813z"></path>
</symbol>
<symbol id="icon-dollar" viewBox="0 0 38 32">
<path d="M36.002 23.010l0.057-17.089-31.050 0.019-0.001-1.96h32.992v19.031l-1.998-0.001zM34.995 26.017l-1.997-0.002 0.057-17.089-31.050 0.020-0.001-1.96h32.992v19.031zM32.053 28.020h-32.053v-18.030h32.053v18.030zM30.049 11.931h-28.046v14.086h28.045v-14.086zM27.045 24.515c0 0.177 0.044 0.342 0.101 0.5h-11.12c2.766 0 5.009-2.69 5.009-6.010s-2.243-6.010-5.009-6.010h11.119c-0.057 0.158-0.101 0.323-0.101 0.501 0 0.83 0.672 1.502 1.502 1.502 0.178 0 0.343-0.044 0.501-0.101v8.215c-0.158-0.056-0.323-0.101-0.501-0.101-0.829 0.001-1.501 0.674-1.501 1.504zM25.041 16.919c-0.83 0-1.502 0.896-1.502 2.003s0.672 2.003 1.502 2.003 1.502-0.896 1.502-2.003-0.672-2.003-1.502-2.003zM18.123 15.394c0.015 0.029 0.027 0.068 0.037 0.116 0.011 0.048 0.018 0.109 0.021 0.182 0.005 0.073 0.007 0.164 0.007 0.273 0 0.121-0.003 0.224-0.009 0.307-0.007 0.084-0.018 0.153-0.031 0.207-0.016 0.055-0.036 0.095-0.062 0.119-0.027 0.025-0.064 0.038-0.11 0.038s-0.118-0.029-0.219-0.087c-0.101-0.059-0.224-0.121-0.369-0.189s-0.315-0.131-0.507-0.187-0.402-0.084-0.632-0.084c-0.18 0-0.336 0.021-0.469 0.065-0.134 0.044-0.246 0.104-0.335 0.181s-0.157 0.17-0.2 0.277c-0.044 0.108-0.066 0.223-0.066 0.343 0 0.18 0.049 0.335 0.147 0.467s0.229 0.248 0.395 0.35c0.165 0.103 0.352 0.198 0.56 0.288s0.421 0.185 0.638 0.284c0.217 0.101 0.43 0.214 0.639 0.342 0.209 0.127 0.395 0.279 0.557 0.456 0.163 0.178 0.295 0.386 0.395 0.626s0.15 0.522 0.15 0.848c0 0.425-0.080 0.799-0.238 1.119-0.158 0.321-0.373 0.59-0.645 0.805s-0.588 0.376-0.951 0.484c-0.046 0.014-0.096 0.020-0.143 0.031v1.094h-0.985v-0.965c-0.013 0-0.024 0.003-0.037 0.003-0.279 0-0.539-0.023-0.779-0.068s-0.452-0.101-0.635-0.164c-0.184-0.064-0.337-0.132-0.46-0.202s-0.212-0.132-0.266-0.186-0.093-0.132-0.116-0.234-0.035-0.25-0.035-0.442c0-0.129 0.004-0.238 0.013-0.325 0.008-0.088 0.022-0.159 0.041-0.214 0.019-0.054 0.044-0.093 0.075-0.116 0.031-0.022 0.068-0.034 0.109-0.034 0.059 0 0.141 0.034 0.248 0.104 0.106 0.068 0.243 0.145 0.41 0.228s0.366 0.159 0.598 0.228c0.231 0.069 0.5 0.104 0.804 0.104 0.2 0 0.38-0.024 0.538-0.072s0.293-0.116 0.404-0.203c0.11-0.088 0.194-0.197 0.253-0.326s0.088-0.274 0.088-0.433c0-0.184-0.051-0.342-0.15-0.473-0.1-0.132-0.23-0.248-0.391-0.351s-0.343-0.198-0.547-0.287c-0.205-0.090-0.415-0.185-0.632-0.285s-0.428-0.214-0.632-0.341c-0.204-0.127-0.387-0.279-0.547-0.457-0.16-0.177-0.291-0.387-0.391-0.628-0.1-0.242-0.15-0.532-0.15-0.87 0-0.388 0.072-0.729 0.216-1.022 0.144-0.294 0.338-0.538 0.582-0.732s0.532-0.339 0.863-0.435c0.17-0.049 0.346-0.085 0.527-0.109v-1.035h0.985v1.035c0.039 0.005 0.078 0.003 0.117 0.009 0.192 0.029 0.372 0.068 0.539 0.118 0.166 0.050 0.314 0.105 0.443 0.168s0.215 0.113 0.258 0.155c0.039 0.037 0.067 0.072 0.082 0.102zM11.018 19.005c0 3.319 2.242 6.010 5.008 6.010h-11.119c0.056-0.158 0.101-0.323 0.101-0.5 0-0.83-0.673-1.503-1.502-1.503-0.178 0-0.343 0.045-0.501 0.101v-8.215c0.158 0.057 0.323 0.101 0.501 0.101 0.83 0 1.502-0.672 1.502-1.502 0-0.178-0.045-0.343-0.101-0.501h11.119c-2.766-0.001-5.008 2.69-5.008 6.009zM7.011 16.919c-0.83 0-1.502 0.896-1.502 2.003s0.673 2.003 1.502 2.003c0.83 0 1.502-0.896 1.502-2.003s-0.672-2.003-1.502-2.003z"></path>
</symbol>
<symbol id="icon-cart" viewBox="0 0 32 32">
<path d="M31.914 5.4l-2.914 11.6c0 0.139-0.028 0.27-0.078 0.389-0.102 0.24-0.293 0.432-0.532 0.533-0.12 0.051-0.252 0.078-0.39 0.078h-19l0.8 4h17.2c0.553 0 1 0.447 1 1s-0.447 1-1 1h-18c-0.553 0-1-0.447-1-1l-3.8-19h-3.2c-0.552 0-1-0.448-1-1s0.448-1 1-1h4c0.553 0 1 0.448 1 1l0.2 1h24.8c0.553 0 1 0.448 1 1 0 0.143-0.032 0.277-0.086 0.4zM8.6 16h3.4v-10h-5.4l2 10zM18 6h-5v10h5v-10zM24 6h-5v10h5v-10zM25 6v10h2.253l2.533-10h-4.786zM11 26c1.657 0 3 1.344 3 3s-1.343 3-3 3-3-1.344-3-3 1.343-3 3-3zM11 30c0.553 0 1-0.447 1-1s-0.447-1-1-1-1 0.447-1 1 0.447 1 1 1zM25 26c1.657 0 3 1.344 3 3s-1.343 3-3 3-3-1.344-3-3 1.343-3 3-3zM25 30c0.553 0 1-0.447 1-1s-0.447-1-1-1-1 0.447-1 1 0.447 1 1 1z"></path>
</symbol>
<symbol id="icon-headphones" viewBox="0 0 32 32">
<path d="M9 18h-2v14h2c0.55 0 1-0.45 1-1v-12c0-0.55-0.45-1-1-1z"></path>
<path d="M23 18c-0.55 0-1 0.45-1 1v12c0 0.55 0.45 1 1 1h2v-14h-2z"></path>
<path d="M32 16c0-8.837-7.163-16-16-16s-16 7.163-16 16c0 1.919 0.338 3.759 0.958 5.464-0.609 1.038-0.958 2.246-0.958 3.536 0 3.526 2.608 6.443 6 6.929v-13.857c-0.997 0.143-1.927 0.495-2.742 1.012-0.168-0.835-0.258-1.699-0.258-2.584 0-7.18 5.82-13 13-13s13 5.82 13 13c0 0.885-0.088 1.749-0.257 2.584-0.816-0.517-1.745-0.87-2.743-1.013v13.858c3.392-0.485 6-3.402 6-6.929 0-1.29-0.349-2.498-0.958-3.536 0.62-1.705 0.958-3.545 0.958-5.465z"></path>
</symbol>
<symbol id="icon-truck" viewBox="0 0 32 32">
<path d="M32 18l-4-8h-6v-4c0-1.1-0.9-2-2-2h-18c-1.1 0-2 0.9-2 2v16l2 2h2.536c-0.341 0.588-0.536 1.271-0.536 2 0 2.209 1.791 4 4 4s4-1.791 4-4c0-0.729-0.196-1.412-0.536-2h11.073c-0.341 0.588-0.537 1.271-0.537 2 0 2.209 1.791 4 4 4s4-1.791 4-4c0-0.729-0.196-1.412-0.537-2h2.537v-6zM22 18v-6h4.146l3 6h-7.146z"></path>
</symbol>
<symbol id="icon-security" viewBox="0 0 24 24">
<path d="M12 0.984l9 4.031v6q0 4.172-2.578 7.617t-6.422 4.383q-3.844-0.938-6.422-4.383t-2.578-7.617v-6zM12 12v8.953q2.766-0.891 4.688-3.352t2.297-5.602h-6.984zM12 12v-8.813l-6.984 3.094v5.719h6.984z"></path>
</symbol>
<symbol id="icon-star-o" viewBox="0 0 22 24">
<path d="M15.228 13.446l4.098-3.978-5.652-0.83-2.531-5.116-2.531 5.116-5.652 0.83 4.098 3.978-0.978 5.638 5.063-2.665 5.049 2.665zM22.286 8.665c0 0.241-0.174 0.469-0.348 0.643l-4.862 4.741 1.152 6.696c0.013 0.094 0.013 0.174 0.013 0.268 0 0.362-0.161 0.67-0.549 0.67-0.188 0-0.375-0.067-0.536-0.161l-6.013-3.161-6.013 3.161c-0.174 0.094-0.348 0.161-0.536 0.161-0.388 0-0.563-0.321-0.563-0.67 0-0.094 0.013-0.174 0.027-0.268l1.152-6.696-4.875-4.741c-0.161-0.174-0.335-0.402-0.335-0.643 0-0.402 0.415-0.563 0.75-0.616l6.723-0.978 3.013-6.094c0.121-0.254 0.348-0.549 0.656-0.549s0.536 0.295 0.656 0.549l3.013 6.094 6.723 0.978c0.321 0.054 0.75 0.214 0.75 0.616z"></path>
</symbol>
<symbol id="icon-align-justify" viewBox="0 0 24 24">
<path d="M24 18v1.714c0 0.469-0.388 0.857-0.857 0.857h-22.286c-0.469 0-0.857-0.388-0.857-0.857v-1.714c0-0.469 0.388-0.857 0.857-0.857h22.286c0.469 0 0.857 0.388 0.857 0.857zM24 12.857v1.714c0 0.469-0.388 0.857-0.857 0.857h-22.286c-0.469 0-0.857-0.388-0.857-0.857v-1.714c0-0.469 0.388-0.857 0.857-0.857h22.286c0.469 0 0.857 0.388 0.857 0.857zM24 7.714v1.714c0 0.469-0.388 0.857-0.857 0.857h-22.286c-0.469 0-0.857-0.388-0.857-0.857v-1.714c0-0.469 0.388-0.857 0.857-0.857h22.286c0.469 0 0.857 0.388 0.857 0.857zM24 2.571v1.714c0 0.469-0.388 0.857-0.857 0.857h-22.286c-0.469 0-0.857-0.388-0.857-0.857v-1.714c0-0.469 0.388-0.857 0.857-0.857h22.286c0.469 0 0.857 0.388 0.857 0.857z"></path>
</symbol>
<symbol id="icon-search" viewBox="0 0 26 28">
<path d="M18 13c0-3.859-3.141-7-7-7s-7 3.141-7 7 3.141 7 7 7 7-3.141 7-7zM26 26c0 1.094-0.906 2-2 2-0.531 0-1.047-0.219-1.406-0.594l-5.359-5.344c-1.828 1.266-4.016 1.937-6.234 1.937-6.078 0-11-4.922-11-11s4.922-11 11-11 11 4.922 11 11c0 2.219-0.672 4.406-1.937 6.234l5.359 5.359c0.359 0.359 0.578 0.875 0.578 1.406z"></path>
</symbol>
<symbol id="icon-star-o" viewBox="0 0 26 28">
<path d="M17.766 15.687l4.781-4.641-6.594-0.969-2.953-5.969-2.953 5.969-6.594 0.969 4.781 4.641-1.141 6.578 5.906-3.109 5.891 3.109zM26 10.109c0 0.281-0.203 0.547-0.406 0.75l-5.672 5.531 1.344 7.812c0.016 0.109 0.016 0.203 0.016 0.313 0 0.422-0.187 0.781-0.641 0.781-0.219 0-0.438-0.078-0.625-0.187l-7.016-3.687-7.016 3.687c-0.203 0.109-0.406 0.187-0.625 0.187-0.453 0-0.656-0.375-0.656-0.781 0-0.109 0.016-0.203 0.031-0.313l1.344-7.812-5.688-5.531c-0.187-0.203-0.391-0.469-0.391-0.75 0-0.469 0.484-0.656 0.875-0.719l7.844-1.141 3.516-7.109c0.141-0.297 0.406-0.641 0.766-0.641s0.625 0.344 0.766 0.641l3.516 7.109 7.844 1.141c0.375 0.063 0.875 0.25 0.875 0.719z"></path>
</symbol>
<symbol id="icon-align-justify" viewBox="0 0 28 28">
<path d="M28 21v2c0 0.547-0.453 1-1 1h-26c-0.547 0-1-0.453-1-1v-2c0-0.547 0.453-1 1-1h26c0.547 0 1 0.453 1 1zM28 15v2c0 0.547-0.453 1-1 1h-26c-0.547 0-1-0.453-1-1v-2c0-0.547 0.453-1 1-1h26c0.547 0 1 0.453 1 1zM28 9v2c0 0.547-0.453 1-1 1h-26c-0.547 0-1-0.453-1-1v-2c0-0.547 0.453-1 1-1h26c0.547 0 1 0.453 1 1zM28 3v2c0 0.547-0.453 1-1 1h-26c-0.547 0-1-0.453-1-1v-2c0-0.547 0.453-1 1-1h26c0.547 0 1 0.453 1 1z"></path>
</symbol>
<symbol id="icon-shopping-cart" viewBox="0 0 26 28">
<path d="M10 24c0 1.094-0.906 2-2 2s-2-0.906-2-2 0.906-2 2-2 2 0.906 2 2zM24 24c0 1.094-0.906 2-2 2s-2-0.906-2-2 0.906-2 2-2 2 0.906 2 2zM26 7v8c0 0.5-0.391 0.938-0.891 1l-16.312 1.906c0.078 0.359 0.203 0.719 0.203 1.094 0 0.359-0.219 0.688-0.375 1h14.375c0.547 0 1 0.453 1 1s-0.453 1-1 1h-16c-0.547 0-1-0.453-1-1 0-0.484 0.703-1.656 0.953-2.141l-2.766-12.859h-3.187c-0.547 0-1-0.453-1-1s0.453-1 1-1h4c1.047 0 1.078 1.25 1.234 2h18.766c0.547 0 1 0.453 1 1z"></path>
</symbol>
<symbol id="icon-twitter-square" viewBox="0 0 24 28">
<path d="M20 9.531c-0.594 0.266-1.219 0.438-1.891 0.531 0.688-0.406 1.203-1.062 1.453-1.828-0.641 0.375-1.344 0.656-2.094 0.797-0.594-0.641-1.453-1.031-2.391-1.031-1.813 0-3.281 1.469-3.281 3.281 0 0.25 0.016 0.516 0.078 0.75-2.734-0.141-5.156-1.437-6.781-3.437-0.281 0.484-0.453 1.062-0.453 1.656 0 1.141 0.531 2.141 1.422 2.734-0.547-0.016-1.062-0.172-1.563-0.406v0.031c0 1.594 1.203 2.922 2.703 3.219-0.281 0.078-0.5 0.125-0.797 0.125-0.203 0-0.406-0.031-0.609-0.063 0.422 1.297 1.625 2.25 3.063 2.281-1.125 0.875-2.531 1.406-4.078 1.406-0.266 0-0.531-0.016-0.781-0.047 1.453 0.922 3.172 1.469 5.031 1.469 6.031 0 9.344-5 9.344-9.344 0-0.141 0-0.281-0.016-0.422 0.641-0.453 1.203-1.031 1.641-1.703zM24 6.5v15c0 2.484-2.016 4.5-4.5 4.5h-15c-2.484 0-4.5-2.016-4.5-4.5v-15c0-2.484 2.016-4.5 4.5-4.5h15c2.484 0 4.5 2.016 4.5 4.5z"></path>
</symbol>
<symbol id="icon-facebook-square" viewBox="0 0 24 28">
<path d="M19.5 2c2.484 0 4.5 2.016 4.5 4.5v15c0 2.484-2.016 4.5-4.5 4.5h-2.938v-9.297h3.109l0.469-3.625h-3.578v-2.312c0-1.047 0.281-1.75 1.797-1.75l1.906-0.016v-3.234c-0.328-0.047-1.469-0.141-2.781-0.141-2.766 0-4.672 1.687-4.672 4.781v2.672h-3.125v3.625h3.125v9.297h-8.313c-2.484 0-4.5-2.016-4.5-4.5v-15c0-2.484 2.016-4.5 4.5-4.5h15z"></path>
</symbol>
<symbol id="icon-camera-retro" viewBox="0 0 28 28">
<path d="M14.5 13c0-0.281-0.219-0.5-0.5-0.5-1.375 0-2.5 1.125-2.5 2.5 0 0.281 0.219 0.5 0.5 0.5s0.5-0.219 0.5-0.5c0-0.828 0.672-1.5 1.5-1.5 0.281 0 0.5-0.219 0.5-0.5zM18 15.031c0 2.203-1.797 4-4 4s-4-1.797-4-4 1.797-4 4-4 4 1.797 4 4zM2 24h24v-2h-24v2zM20 15.031c0-3.313-2.688-6-6-6s-6 2.688-6 6 2.688 6 6 6 6-2.688 6-6zM4 5h6v-2h-6v2zM2 8h24v-4h-12.938l-1 2h-10.063v2zM28 4v20c0 1.109-0.891 2-2 2h-24c-1.109 0-2-0.891-2-2v-20c0-1.109 0.891-2 2-2h24c1.109 0 2 0.891 2 2z"></path>
</symbol>
<symbol id="icon-comments" viewBox="0 0 28 28">
<path d="M22 12c0 4.422-4.922 8-11 8-0.953 0-1.875-0.094-2.75-0.25-1.297 0.922-2.766 1.594-4.344 2-0.422 0.109-0.875 0.187-1.344 0.25h-0.047c-0.234 0-0.453-0.187-0.5-0.453v0c-0.063-0.297 0.141-0.484 0.313-0.688 0.609-0.688 1.297-1.297 1.828-2.594-2.531-1.469-4.156-3.734-4.156-6.266 0-4.422 4.922-8 11-8s11 3.578 11 8zM28 16c0 2.547-1.625 4.797-4.156 6.266 0.531 1.297 1.219 1.906 1.828 2.594 0.172 0.203 0.375 0.391 0.313 0.688v0c-0.063 0.281-0.297 0.484-0.547 0.453-0.469-0.063-0.922-0.141-1.344-0.25-1.578-0.406-3.047-1.078-4.344-2-0.875 0.156-1.797 0.25-2.75 0.25-2.828 0-5.422-0.781-7.375-2.063 0.453 0.031 0.922 0.063 1.375 0.063 3.359 0 6.531-0.969 8.953-2.719 2.609-1.906 4.047-4.484 4.047-7.281 0-0.812-0.125-1.609-0.359-2.375 2.641 1.453 4.359 3.766 4.359 6.375z"></path>
</symbol>
<symbol id="icon-heart-o" viewBox="0 0 28 28">
<path d="M26 9.312c0-4.391-2.969-5.313-5.469-5.313-2.328 0-4.953 2.516-5.766 3.484-0.375 0.453-1.156 0.453-1.531 0-0.812-0.969-3.437-3.484-5.766-3.484-2.5 0-5.469 0.922-5.469 5.313 0 2.859 2.891 5.516 2.922 5.547l9.078 8.75 9.063-8.734c0.047-0.047 2.938-2.703 2.938-5.563zM28 9.312c0 3.75-3.437 6.891-3.578 7.031l-9.734 9.375c-0.187 0.187-0.438 0.281-0.688 0.281s-0.5-0.094-0.688-0.281l-9.75-9.406c-0.125-0.109-3.563-3.25-3.563-7 0-4.578 2.797-7.313 7.469-7.313 2.734 0 5.297 2.156 6.531 3.375 1.234-1.219 3.797-3.375 6.531-3.375 4.672 0 7.469 2.734 7.469 7.313z"></path>
</symbol>
<symbol id="icon-apple" viewBox="0 0 22 28">
<path d="M21.766 18.984c-0.391 1.234-1.016 2.547-1.922 3.906-1.344 2.047-2.688 3.063-4.016 3.063-0.531 0-1.25-0.172-2.188-0.5-0.922-0.344-1.719-0.5-2.359-0.5-0.625 0-1.375 0.172-2.219 0.516-0.859 0.359-1.547 0.531-2.063 0.531-1.609 0-3.156-1.359-4.703-4.047-1.516-2.688-2.297-5.297-2.297-7.859 0-2.391 0.594-4.328 1.766-5.844 1.172-1.5 2.641-2.25 4.438-2.25 0.766 0 1.672 0.156 2.766 0.469 1.078 0.313 1.797 0.469 2.156 0.469 0.453 0 1.203-0.172 2.234-0.531 1.031-0.344 1.937-0.531 2.703-0.531 1.25 0 2.359 0.344 3.328 1.016 0.547 0.375 1.094 0.906 1.625 1.563-0.812 0.688-1.406 1.297-1.781 1.844-0.672 0.969-1.016 2.047-1.016 3.234 0 1.281 0.359 2.453 1.078 3.484s1.547 1.687 2.469 1.969zM15.891 0.656c0 0.641-0.156 1.359-0.453 2.125-0.313 0.781-0.797 1.5-1.453 2.156-0.562 0.562-1.125 0.938-1.687 1.125-0.359 0.109-0.891 0.203-1.625 0.266 0.031-1.547 0.438-2.891 1.219-4.016s2.094-1.891 3.906-2.312c0.031 0.141 0.063 0.25 0.078 0.344 0 0.109 0.016 0.203 0.016 0.313z"></path>
</symbol>
</defs>
</svg>
